<?xml version="1.0" standalone="no"?>
<!DOCTYPE svg PUBLIC "-//W3C//DTD SVG 20010904//EN"
 "http://www.w3.org/TR/2001/REC-SVG-20010904/DTD/svg10.dtd">
<svg version="1.0" xmlns="http://www.w3.org/2000/svg"
 width="602.000000pt" height="408.000000pt" viewBox="0 0 602.000000 408.000000"
 preserveAspectRatio="xMidYMid meet">

<g transform="translate(0.000000,408.000000) scale(0.100000,-0.100000)"
fill="#000000" stroke="none">
<path d="M580 4026 c-215 -64 -378 -202 -476 -401 -67 -137 -79 -193 -79 -375
0 -173 15 -240 80 -370 100 -199 295 -354 510 -406 100 -24 296 -25 400 -1
135 31 345 143 345 183 0 18 -159 251 -190 279 -19 17 -24 15 -116 -31 l-96
-49 -112 0 c-100 0 -117 3 -168 27 -77 36 -152 112 -191 196 -30 63 -32 74
-32 178 0 107 1 112 38 186 107 217 328 280 565 162 76 -39 95 -44 107 -34 17
14 164 221 184 258 16 31 2 52 -64 96 -142 95 -261 126 -474 125 -132 0 -167
-4 -231 -23z"/>
<path d="M2120 4034 c-191 -51 -379 -193 -482 -367 -68 -114 -100 -223 -106
-361 -6 -139 7 -227 50 -339 75 -197 249 -373 448 -454 104 -42 192 -55 325
-50 155 5 223 29 352 123 21 15 23 15 38 -22 31 -74 31 -74 200 -74 116 0 155
3 164 14 8 9 10 218 9 767 l-3 754 -165 0 -165 0 -28 -58 -28 -59 -35 31 c-43
38 -112 74 -183 95 -72 21 -312 21 -391 0z m382 -427 c282 -138 283 -562 1
-698 -24 -12 -77 -26 -117 -32 -93 -13 -187 7 -263 58 -60 40 -92 79 -130 160
-25 53 -28 72 -28 160 0 91 3 106 31 165 37 77 71 120 128 159 70 48 120 61
226 58 81 -2 104 -6 152 -30z"/>
<path d="M4138 4031 c-73 -29 -112 -57 -171 -121 l-55 -59 -27 67 c-48 120
-32 112 -213 112 -110 0 -162 -4 -170 -12 -17 -17 -17 -1499 0 -1516 17 -17
389 -17 406 0 9 9 12 111 12 398 0 212 4 411 10 444 39 239 235 365 442 282
73 -29 91 -32 106 -13 25 31 162 298 162 316 0 26 -36 53 -117 87 -61 25 -82
28 -203 31 -114 3 -142 0 -182 -16z"/>
<path d="M5600 2483 c-8 -3 -18 -11 -22 -17 -4 -6 -8 -448 -8 -982 0 -741 3
-973 12 -982 8 -8 67 -12 198 -12 168 0 189 2 208 19 l22 18 0 966 0 965 -34
16 c-27 13 -67 16 -198 15 -89 0 -170 -3 -178 -6z"/>
<path d="M2466 2044 c-289 -79 -517 -315 -587 -610 -18 -76 -20 -109 -16 -219
6 -152 22 -217 82 -340 154 -313 484 -490 835 -446 159 19 267 62 387 152 74
56 232 208 233 224 0 5 -64 74 -142 152 l-142 143 -106 -105 c-144 -142 -183
-160 -340 -160 -110 0 -118 2 -177 32 -274 143 -313 522 -72 713 77 60 147 83
260 84 91 1 99 -1 170 -37 81 -40 74 -34 784 -736 315 -311 334 -328 420 -373
111 -57 207 -85 328 -93 159 -12 327 24 456 96 193 108 347 310 401 523 28
110 28 292 0 402 -53 208 -200 402 -390 514 -170 101 -401 136 -590 91 -176
-43 -288 -110 -441 -264 -54 -55 -99 -103 -99 -106 0 -3 63 -69 139 -145 l140
-139 104 101 c78 75 122 110 169 132 193 90 426 14 531 -175 122 -216 40 -478
-181 -587 -63 -31 -72 -33 -182 -33 -195 0 -157 -29 -750 560 -278 276 -525
516 -550 532 -199 134 -453 178 -674 117z"/>
<path d="M772 2045 c-79 -17 -153 -51 -214 -98 l-46 -36 -29 57 -28 57 -154 3
c-104 2 -158 -1 -167 -9 -19 -16 -21 -1948 -2 -1967 17 -17 389 -17 406 0 9 9
12 81 12 265 l0 252 73 -39 c105 -57 186 -73 332 -67 133 5 213 26 326 83 196
98 358 302 409 517 25 104 27 278 4 380 -56 248 -251 473 -490 563 -140 53
-301 67 -432 39z m305 -441 c229 -111 273 -466 80 -639 -70 -64 -141 -89 -253
-89 -86 0 -96 2 -167 37 -86 42 -135 92 -176 177 -23 49 -26 67 -26 165 0 98
3 116 27 167 34 74 107 151 172 183 99 48 243 48 343 -1z"/>
</g>
</svg>
