<?xml version="1.0" standalone="no"?>
<!DOCTYPE svg PUBLIC "-//W3C//DTD SVG 20010904//EN"
 "http://www.w3.org/TR/2001/REC-SVG-20010904/DTD/svg10.dtd">
<svg version="1.0" xmlns="http://www.w3.org/2000/svg"
 width="1070.000000pt" height="246.000000pt" viewBox="0 0 1070.000000 246.000000"
 preserveAspectRatio="xMidYMid meet">

<g transform="translate(0.000000,246.000000) scale(0.100000,-0.100000)"
fill="#000000" stroke="none">
<path d="M10290 2453 c-8 -3 -18 -11 -22 -17 -4 -6 -8 -448 -8 -982 0 -741 3
-973 12 -982 8 -8 67 -12 198 -12 168 0 189 2 208 19 l22 18 0 966 0 965 -34
16 c-27 13 -67 16 -198 15 -89 0 -170 -3 -178 -6z"/>
<path d="M7295 2050 c-94 -15 -163 -38 -256 -86 -348 -180 -520 -569 -420
-955 63 -245 260 -462 502 -553 77 -29 220 -56 296 -56 70 0 227 33 302 63
108 44 172 89 299 212 l123 120 -145 144 -145 145 -104 -101 c-111 -108 -152
-134 -250 -159 -127 -33 -265 3 -369 95 -57 51 -114 160 -128 245 -19 118 22
261 101 351 117 133 324 174 485 95 63 -30 114 -77 579 -539 541 -536 557
-551 715 -614 73 -29 219 -57 297 -57 70 0 225 32 301 63 231 95 406 288 484
537 20 65 23 95 23 230 0 135 -3 165 -23 230 -72 230 -222 405 -437 510 -131
65 -211 83 -355 83 -173 0 -300 -37 -445 -130 -69 -45 -275 -237 -275 -257 0
-13 261 -276 274 -276 5 0 53 42 106 94 70 66 118 104 166 127 65 32 75 34
174 34 97 0 110 -2 171 -31 82 -39 139 -89 183 -163 50 -82 70 -159 63 -245
-7 -94 -19 -131 -66 -204 -117 -180 -349 -242 -546 -145 -38 19 -168 143 -550
523 -275 273 -522 512 -548 530 -73 48 -203 107 -281 124 -88 21 -224 28 -301
16z"/>
<path d="M658 2020 c-254 -43 -461 -196 -574 -425 -67 -137 -79 -193 -79 -375
0 -173 15 -240 80 -370 100 -199 295 -354 510 -406 100 -24 296 -25 400 -1
135 31 345 143 345 183 0 18 -159 251 -190 279 -19 17 -24 15 -116 -31 l-96
-49 -112 0 c-100 0 -117 3 -168 27 -77 36 -152 112 -191 196 -30 63 -32 74
-32 178 0 107 1 112 38 186 107 217 328 280 565 162 76 -39 95 -44 107 -34 17
14 164 221 184 258 17 31 2 52 -66 98 -160 106 -408 157 -605 124z"/>
<path d="M2155 2015 c-281 -53 -512 -255 -608 -533 -25 -71 -31 -108 -35 -206
-6 -139 7 -227 50 -339 75 -197 249 -373 448 -454 104 -42 192 -55 325 -50
155 5 223 29 352 123 21 15 23 15 38 -22 31 -74 31 -74 200 -74 116 0 155 3
164 14 8 9 10 218 9 767 l-3 754 -165 0 -165 0 -28 -58 -28 -59 -36 33 c-113
98 -323 141 -518 104z m327 -438 c282 -138 283 -562 1 -698 -24 -12 -77 -26
-117 -32 -93 -13 -187 7 -263 58 -60 40 -92 79 -130 160 -25 53 -28 72 -28
160 0 91 3 106 31 165 37 77 71 120 128 159 70 48 120 61 226 58 81 -2 104 -6
152 -30z"/>
<path d="M4151 2014 c-82 -22 -147 -62 -211 -130 l-58 -63 -27 67 c-48 120
-32 112 -213 112 -110 0 -162 -4 -170 -12 -17 -17 -17 -1499 0 -1516 17 -17
389 -17 406 0 9 9 12 111 12 398 0 212 4 411 10 444 39 239 235 365 442 282
73 -29 91 -32 106 -13 24 30 162 297 162 315 0 26 -25 46 -94 77 -122 54 -256
68 -365 39z"/>
<path d="M5472 2015 c-79 -17 -153 -51 -214 -98 l-46 -36 -29 57 -28 57 -154
3 c-104 2 -158 -1 -167 -9 -19 -16 -21 -1948 -2 -1967 17 -17 389 -17 406 0 9
9 12 81 12 265 l0 252 73 -39 c105 -57 186 -73 332 -67 85 3 140 11 190 27
345 110 567 411 567 770 0 231 -86 428 -255 587 -183 171 -451 248 -685 198z
m305 -441 c229 -111 273 -466 80 -639 -70 -64 -141 -89 -253 -89 -86 0 -96 2
-167 37 -86 42 -135 92 -176 177 -23 49 -26 67 -26 165 0 98 3 116 27 167 34
74 107 151 172 183 99 48 243 48 343 -1z"/>
</g>
</svg>
